<svg width="25" height="25" viewBox="0 0 25 25" fill="none" xmlns="http://www.w3.org/2000/svg">
<path fill-rule="evenodd" clip-rule="evenodd" d="M18.2709 0.958008H6.72831C3.54092 0.958008 0.957031 3.5419 0.957031 6.72928V18.2718C0.957031 21.4592 3.54092 24.0431 6.72831 24.0431H18.2709C21.4582 24.0431 24.0421 21.4592 24.0421 18.2718V6.72928C24.0421 3.5419 21.4582 0.958008 18.2709 0.958008ZM12.4992 7.91547C9.96688 7.91547 7.91406 9.96829 7.91406 12.5006C7.91406 15.0329 9.96688 17.0857 12.4992 17.0857C15.0315 17.0857 17.0843 15.0329 17.0843 12.5006C17.0843 9.96829 15.0315 7.91547 12.4992 7.91547ZM5.91406 12.5006C5.91406 8.86372 8.86232 5.91547 12.4992 5.91547C16.136 5.91547 19.0843 8.86372 19.0843 12.5006C19.0843 16.1374 16.136 19.0857 12.4992 19.0857C8.86232 19.0857 5.91406 16.1374 5.91406 12.5006ZM21.0742 4.68168C21.0742 3.85325 20.4026 3.18168 19.5742 3.18168C18.7458 3.18168 18.0742 3.85325 18.0742 4.68168V4.6843C18.0742 5.51273 18.7458 6.1843 19.5742 6.1843C20.4026 6.1843 21.0742 5.51273 21.0742 4.6843V4.68168Z" fill="white"/>
</svg>
