<svg width="29" height="25" viewBox="0 0 29 25" fill="none" xmlns="http://www.w3.org/2000/svg">
<path d="M28.5 0.665584C27.1 1.39919 25.728 1.69712 24.3 2.14776C22.7306 0.253868 20.4038 0.149067 18.168 1.04436C15.9322 1.93966 14.4678 4.12849 14.5 6.6392V8.13635C9.957 8.26062 5.911 6.04783 3.3 2.14776C3.3 2.14776 -2.5548 13.2761 8.9 18.6164C6.2792 20.4833 3.6654 21.7424 0.5 21.6107C5.1312 24.31 10.1782 25.2383 14.5476 23.8819C19.5596 22.3248 23.6784 18.308 25.259 12.2909C25.7305 10.4609 25.9646 8.57031 25.9548 6.67214C25.952 6.29935 28.0688 2.52205 28.5 0.664086V0.665584Z" fill="white"/>
</svg>
